<svg width="152" height="32" viewBox="0 0 152 32" fill="none" xmlns="http://www.w3.org/2000/svg">
<path d="M8.56 3.28C9.04 4.16 9.58667 5.25333 10.2 6.56C10.84 7.84 11.4933 9.24 12.16 10.76C12.8533 12.2533 13.5333 13.7867 14.2 15.36C14.8667 16.9333 15.4933 18.4133 16.08 19.8C16.6667 18.4133 17.2933 16.9333 17.96 15.36C18.6267 13.7867 19.2933 12.2533 19.96 10.76C20.6533 9.24 21.3067 7.84 21.92 6.56C22.56 5.25333 23.12 4.16 23.6 3.28H29.28C29.5467 5.12 29.7867 7.18667 30 9.48C30.24 11.7467 30.44 14.12 30.6 16.6C30.7867 19.0533 30.9467 21.52 31.08 24C31.24 26.48 31.3733 28.8133 31.48 31H25.4C25.32 28.3067 25.2133 25.3733 25.08 22.2C24.9467 19.0267 24.7467 15.8267 24.48 12.6C24 13.72 23.4667 14.96 22.88 16.32C22.2933 17.68 21.7067 19.04 21.12 20.4C20.56 21.76 20.0133 23.0667 19.48 24.32C18.9467 25.5467 18.4933 26.6 18.12 27.48H13.76C13.3867 26.6 12.9333 25.5467 12.4 24.32C11.8667 23.0667 11.3067 21.76 10.72 20.4C10.16 19.04 9.58667 17.68 9 16.32C8.41333 14.96 7.88 13.72 7.4 12.6C7.13333 15.8267 6.93333 19.0267 6.8 22.2C6.66667 25.3733 6.56 28.3067 6.48 31H0.4C0.506667 28.8133 0.626667 26.48 0.76 24C0.92 21.52 1.08 19.0533 1.24 16.6C1.42667 14.12 1.62667 11.7467 1.84 9.48C2.08 7.18667 2.33333 5.12 2.6 3.28H8.56ZM56.3784 20.44C56.3784 22.0933 56.1384 23.6133 55.6584 25C55.1784 26.36 54.4851 27.5333 53.5784 28.52C52.6718 29.48 51.5784 30.2267 50.2984 30.76C49.0451 31.2933 47.6318 31.56 46.0584 31.56C44.5118 31.56 43.0984 31.2933 41.8184 30.76C40.5651 30.2267 39.4851 29.48 38.5784 28.52C37.6718 27.5333 36.9651 26.36 36.4584 25C35.9518 23.6133 35.6984 22.0933 35.6984 20.44C35.6984 18.7867 35.9518 17.28 36.4584 15.92C36.9918 14.56 37.7118 13.4 38.6184 12.44C39.5518 11.48 40.6451 10.7333 41.8984 10.2C43.1784 9.66667 44.5651 9.4 46.0584 9.4C47.5784 9.4 48.9651 9.66667 50.2184 10.2C51.4984 10.7333 52.5918 11.48 53.4984 12.44C54.4051 13.4 55.1118 14.56 55.6184 15.92C56.1251 17.28 56.3784 18.7867 56.3784 20.44ZM50.2984 20.44C50.2984 18.6 49.9251 17.16 49.1784 16.12C48.4584 15.0533 47.4184 14.52 46.0584 14.52C44.6984 14.52 43.6451 15.0533 42.8984 16.12C42.1518 17.16 41.7784 18.6 41.7784 20.44C41.7784 22.28 42.1518 23.7467 42.8984 24.84C43.6451 25.9067 44.6984 26.44 46.0584 26.44C47.4184 26.44 48.4584 25.9067 49.1784 24.84C49.9251 23.7467 50.2984 22.28 50.2984 20.44ZM60.9953 10.68C62.0086 10.3867 63.3153 10.12 64.9153 9.88C66.5153 9.61333 68.1953 9.48 69.9553 9.48C71.742 9.48 73.222 9.72 74.3953 10.2C75.5953 10.6533 76.542 11.3067 77.2353 12.16C77.9286 13.0133 78.422 14.0267 78.7153 15.2C79.0086 16.3733 79.1553 17.68 79.1553 19.12V31H73.1953V19.84C73.1953 17.92 72.942 16.56 72.4353 15.76C71.9286 14.96 70.982 14.56 69.5953 14.56C69.1686 14.56 68.7153 14.5867 68.2353 14.64C67.7553 14.6667 67.3286 14.7067 66.9553 14.76V31H60.9953V10.68ZM90.51 31H84.55V9.96H90.51V31ZM91.07 3.88C91.07 4.97333 90.71 5.84 89.99 6.48C89.2967 7.09333 88.47 7.4 87.51 7.4C86.55 7.4 85.71 7.09333 84.99 6.48C84.2967 5.84 83.95 4.97333 83.95 3.88C83.95 2.78667 84.2967 1.93333 84.99 1.32C85.71 0.679999 86.55 0.359999 87.51 0.359999C88.47 0.359999 89.2967 0.679999 89.99 1.32C90.71 1.93333 91.07 2.78667 91.07 3.88ZM95.9125 4.72L101.873 3.76V9.96H109.033V14.92H101.873V22.32C101.873 23.5733 102.086 24.5733 102.513 25.32C102.966 26.0667 103.859 26.44 105.193 26.44C105.833 26.44 106.486 26.3867 107.153 26.28C107.846 26.1467 108.473 25.9733 109.033 25.76L109.873 30.4C109.153 30.6933 108.353 30.9467 107.473 31.16C106.593 31.3733 105.513 31.48 104.233 31.48C102.606 31.48 101.259 31.2667 100.193 30.84C99.1258 30.3867 98.2725 29.7733 97.6325 29C96.9925 28.2 96.5392 27.24 96.2725 26.12C96.0325 25 95.9125 23.76 95.9125 22.4V4.72Z" fill="#73DFED"/>
<path d="M133.566 20.44C133.566 22.0933 133.326 23.6133 132.846 25C132.366 26.36 131.673 27.5333 130.766 28.52C129.859 29.48 128.766 30.2267 127.486 30.76C126.233 31.2933 124.819 31.56 123.246 31.56C121.699 31.56 120.286 31.2933 119.006 30.76C117.753 30.2267 116.673 29.48 115.766 28.52C114.859 27.5333 114.153 26.36 113.646 25C113.139 23.6133 112.886 22.0933 112.886 20.44C112.886 18.7867 113.139 17.28 113.646 15.92C114.179 14.56 114.899 13.4 115.806 12.44C116.739 11.48 117.833 10.7333 119.086 10.2C120.366 9.66667 121.753 9.4 123.246 9.4C124.766 9.4 126.153 9.66667 127.406 10.2C128.686 10.7333 129.779 11.48 130.686 12.44C131.593 13.4 132.299 14.56 132.806 15.92C133.313 17.28 133.566 18.7867 133.566 20.44ZM127.486 20.44C127.486 18.6 127.113 17.16 126.366 16.12C125.646 15.0533 124.606 14.52 123.246 14.52C121.886 14.52 120.833 15.0533 120.086 16.12C119.339 17.16 118.966 18.6 118.966 20.44C118.966 22.28 119.339 23.7467 120.086 24.84C120.833 25.9067 121.886 26.44 123.246 26.44C124.606 26.44 125.646 25.9067 126.366 24.84C127.113 23.7467 127.486 22.28 127.486 20.44ZM150.863 15.24C150.329 15.1067 149.703 14.9733 148.983 14.84C148.263 14.68 147.489 14.6 146.663 14.6C146.289 14.6 145.836 14.64 145.303 14.72C144.796 14.7733 144.409 14.84 144.143 14.92V31H138.183V11.08C139.249 10.7067 140.503 10.36 141.943 10.04C143.409 9.69333 145.036 9.52 146.823 9.52C147.143 9.52 147.529 9.54667 147.983 9.6C148.436 9.62667 148.889 9.68 149.343 9.76C149.796 9.81333 150.249 9.89333 150.703 10C151.156 10.08 151.543 10.1867 151.863 10.32L150.863 15.24Z" fill="#A683FF"/>
</svg>
