<svg width="24" height="24" viewBox="0 0 24 24" fill="none" xmlns="http://www.w3.org/2000/svg">
    <path d="M0 12C0 5.37258 5.37258 0 12 0V0C18.6274 0 24 5.37258 24 12V12C24 18.6274 18.6274 24 12 24V24C5.37258 24 0 18.6274 0 12V12Z" fill="#1C7CFD"/>
    <path fill-rule="evenodd" clip-rule="evenodd" d="M17.55 7.95C16.95 7.35 16.05 7.35 15.45 7.95L10.5 12.9L8.55 10.95C7.95 10.35 7.05 10.35 6.45 10.95C5.85 11.55 5.85 12.45 6.45 13.05L9.45 16.05C9.75 16.35 10.05 16.5 10.5 16.5C10.95 16.5 11.25 16.35 11.55 16.05L17.55 10.05C18.15 9.45 18.15 8.55 17.55 7.95V7.95Z" fill="white"/>
</svg>
