<svg width="26" height="26" viewBox="0 0 26 26" fill="none" xmlns="http://www.w3.org/2000/svg">
<circle cx="13" cy="13" r="13" fill="#A683FF"/>
<path d="M5.98 10.314C6.25067 10.202 6.53067 10.076 6.82 9.936C7.11867 9.78667 7.408 9.628 7.688 9.46C7.968 9.28267 8.234 9.10067 8.486 8.914C8.74733 8.718 8.98067 8.51267 9.186 8.298H10.642V18H8.556V11.014C8.276 11.2007 7.96333 11.3733 7.618 11.532C7.27267 11.6813 6.93667 11.812 6.61 11.924L5.98 10.314ZM19.901 10.846C19.901 11.2007 19.831 11.5413 19.691 11.868C19.551 12.1947 19.369 12.512 19.145 12.82C18.921 13.1187 18.669 13.408 18.389 13.688C18.109 13.968 17.8337 14.234 17.563 14.486C17.423 14.6167 17.269 14.766 17.101 14.934C16.9424 15.0927 16.7884 15.256 16.639 15.424C16.4897 15.592 16.3544 15.7507 16.233 15.9C16.121 16.04 16.051 16.1567 16.023 16.25H20.195V18H13.727C13.7084 17.8973 13.699 17.7667 13.699 17.608C13.699 17.4493 13.699 17.3373 13.699 17.272C13.699 16.824 13.769 16.4133 13.909 16.04C14.0584 15.6667 14.2497 15.3213 14.483 15.004C14.7164 14.6773 14.9777 14.374 15.267 14.094C15.5657 13.814 15.8597 13.534 16.149 13.254C16.373 13.0393 16.583 12.8387 16.779 12.652C16.975 12.456 17.1477 12.2693 17.297 12.092C17.4464 11.9053 17.563 11.7233 17.647 11.546C17.731 11.3593 17.773 11.1727 17.773 10.986C17.773 10.5753 17.6564 10.286 17.423 10.118C17.1897 9.95 16.9004 9.866 16.555 9.866C16.303 9.866 16.065 9.908 15.841 9.992C15.6264 10.0667 15.4257 10.16 15.239 10.272C15.0617 10.3747 14.9077 10.482 14.777 10.594C14.6464 10.6967 14.5484 10.7807 14.483 10.846L13.447 9.39C13.8577 9.00733 14.3337 8.69467 14.875 8.452C15.4257 8.2 16.0137 8.074 16.639 8.074C17.2084 8.074 17.6984 8.13933 18.109 8.27C18.5197 8.40067 18.8557 8.58733 19.117 8.83C19.3877 9.06333 19.5837 9.35267 19.705 9.698C19.8357 10.034 19.901 10.4167 19.901 10.846Z" fill="white"/>
</svg>
