<svg width="28" height="28" viewBox="0 0 28 28" fill="none" xmlns="http://www.w3.org/2000/svg">
<path d="M10 26C10.5999 27.1729 11.9301 28 13.5 28C15.0699 28 16.4001 27.1729 17 26C15.893 26.0471 14.7418 26.0788 13.5 26.0788C12.2582 26.0788 11.107 26.047 10 26Z" fill="black"/>
<path d="M26.4777 20.0284C24.9867 18.1398 22.4843 14.4273 22.4843 10.7955C22.4843 7.19432 20.181 3.95452 16.8278 2.76362C16.7871 1.2318 15.5336 0 14.0007 0C12.4666 0 11.2143 1.2318 11.1735 2.76362C7.81923 3.95452 5.51592 7.19432 5.51592 10.7955C5.51592 14.4284 3.01463 18.1398 1.52246 20.0284C1.0247 20.6591 0.870801 21.492 1.11181 22.2568C1.34713 23.0034 1.93311 23.5818 2.67977 23.8023C3.98756 24.1898 6.13134 24.6261 9.40083 24.8489C10.8161 24.9443 12.3377 25 14.0007 25C15.6626 25 17.1842 24.9443 18.5994 24.8489C21.87 24.6261 24.0127 24.1898 25.3216 23.8023C26.0683 23.5818 26.6531 23.0034 26.8884 22.2568C27.1294 21.492 26.9744 20.6591 26.4777 20.0284Z" fill="black"/>
</svg>
