<svg width="28" height="28" viewBox="0 0 28 28" fill="none" xmlns="http://www.w3.org/2000/svg">
<path d="M10.1376 23.6251H5.25C5.01794 23.6251 4.79538 23.5329 4.63128 23.3688C4.46719 23.2047 4.375 22.9822 4.375 22.7501V17.8625C4.375 17.7476 4.39763 17.6339 4.44161 17.5277C4.48558 17.4215 4.55003 17.3251 4.63128 17.2438L17.7563 4.11883C17.9204 3.95474 18.1429 3.86255 18.375 3.86255C18.6071 3.86255 18.8296 3.95474 18.9937 4.11883L23.8813 9.00639C24.0454 9.17049 24.1376 9.39305 24.1376 9.62511C24.1376 9.85718 24.0454 10.0797 23.8813 10.2438L10.7563 23.3688C10.675 23.4501 10.5786 23.5145 10.4724 23.5585C10.3663 23.6025 10.2525 23.6251 10.1376 23.6251Z" stroke="#1C7CFD" stroke-width="1.5" stroke-linecap="round" stroke-linejoin="round"/>
<path d="M14.875 7L21 13.125" stroke="#1C7CFD" stroke-width="1.5" stroke-linecap="round" stroke-linejoin="round"/>
<path d="M10.4441 23.5691L4.43066 17.5557" stroke="#1C7CFD" stroke-width="1.5" stroke-linecap="round" stroke-linejoin="round"/>
</svg>
