<svg width="151" height="151" viewBox="0 0 151 151" fill="none" xmlns="http://www.w3.org/2000/svg">
<rect width="151" height="151" rx="38" fill="#EBE8FC"/>
<path fill-rule="evenodd" clip-rule="evenodd" d="M72.4253 61.4624C72.4449 61.2016 72.6623 61 72.9238 61H75.1147C75.3719 61 75.5872 61.1952 75.6123 61.4512L77.1221 76.8591L87.7519 83.0581C87.9055 83.1477 88 83.3121 88 83.49V85.7164C88 86.0472 87.6846 86.2868 87.3659 86.1981L71.3015 81.7269C71.0717 81.6629 70.919 81.4455 70.937 81.2076L72.4253 61.4624Z" fill="#A683FF"/>
<path fill-rule="evenodd" clip-rule="evenodd" d="M58.3111 40.9826C57.7805 40.3617 56.7642 40.598 56.5694 41.3876L52.4919 57.9128C52.33 58.5689 52.8607 59.1918 53.5406 59.1437L70.7031 57.9291C71.5227 57.8711 71.9276 56.9153 71.3961 56.2934L67.376 51.5894C70.115 50.6704 73.0187 50.1905 76 50.1905C90.7539 50.1905 102.714 61.9696 102.714 76.5C102.714 91.0303 90.7539 102.81 76 102.81C61.2461 102.81 49.2857 91.0303 49.2857 76.5C49.2857 74.0607 49.6211 71.6716 50.2751 69.3754L44.223 67.7035C43.4262 70.5012 43 73.4516 43 76.5C43 94.4492 57.7746 109 76 109C94.2254 109 109 94.4492 109 76.5C109 58.5507 94.2254 44 76 44C71.4203 44 67.0585 44.9188 63.0942 46.5793L58.3111 40.9826Z" fill="#A683FF"/>
</svg>
